HIERARCHY
ROOT Pelvis
{
	OFFSET 0.000000 0.000000 0.000000
	CHANNELS 6 Xposition Yposition Zposition Xrotation Yrotation Zrotation
	JOINT LeftUpLeg_virtual
	{
		OFFSET 0.000000 0.000000 0.000000
		CHANNELS 3 Xrotation Yrotation Zrotation
		JOINT LeftUpLeg
		{
			OFFSET 18.735201 -5.666702 -4.541200
			CHANNELS 3 Xrotation Yrotation Zrotation
			JOINT LeftLeg
			{
				OFFSET -0.021200 -31.938179 0.493100
				CHANNELS 3 Xrotation Yrotation Zrotation
				JOINT LeftFoot
				{
					OFFSET 0.021200 -31.938179 -4.336299
					CHANNELS 3 Xrotation Yrotation Zrotation
					JOINT LeftToeBase
					{
						OFFSET 0.943001 -26.722000 15.023500
						CHANNELS 3 Xrotation Yrotation Zrotation
						End Site
						{
							OFFSET 0 0 0
						}
					}
				}
			}
		}
	}
	JOINT RightUpLeg_virtual
	{
		OFFSET 0.000000 0.000000 0.000000
		CHANNELS 3 Xrotation Yrotation Zrotation
		JOINT RightUpLeg
		{
			OFFSET -18.735201 -5.666702 -4.541200
			CHANNELS 3 Xrotation Yrotation Zrotation
			JOINT RightLeg
			{
				OFFSET 0.018946 -31.938133 0.493100
				CHANNELS 3 Xrotation Yrotation Zrotation
				JOINT RightFoot
				{
					OFFSET -0.018946 -31.938126 -4.336299
					CHANNELS 3 Xrotation Yrotation Zrotation
					JOINT RightToeBase
					{
						OFFSET -0.943001 -26.722004 15.023500
						CHANNELS 3 Xrotation Yrotation Zrotation
						End Site
						{
							OFFSET 0 0 0
						}
					}
				}
			}
		}
	}
	JOINT Hips_virtual
	{
		OFFSET 0.000000 0.000000 0.000000
		CHANNELS 3 Xrotation Yrotation Zrotation
		JOINT Hips
		{
			OFFSET -0.000000 -0.000000 -0.000000
			CHANNELS 3 Xrotation Yrotation Zrotation
			JOINT Spine
			{
				OFFSET 0.000000 10.199997 -0.299500
				CHANNELS 3 Xrotation Yrotation Zrotation
				JOINT Spine1
				{
					OFFSET 0.000000 11.900002 -1.516600
					CHANNELS 3 Xrotation Yrotation Zrotation
					JOINT Spine2
					{
						OFFSET 0.000000 13.600006 -2.842500
						CHANNELS 3 Xrotation Yrotation Zrotation
						JOINT Neck_virtual
						{
							OFFSET 0.000000 0.000000 0.000000
							CHANNELS 3 Xrotation Yrotation Zrotation
							JOINT Neck
							{
								OFFSET 0.000000 9.624100 -2.890100
								CHANNELS 3 Xrotation Yrotation Zrotation
								JOINT Head
								{
									OFFSET 0.000000 14.068802 -1.351900
									CHANNELS 3 Xrotation Yrotation Zrotation
									End Site
									{
										OFFSET 0 0 0
									}
								}
							}
						}
						JOINT LeftShoulder_virtual
						{
							OFFSET 0.000000 0.000000 0.000000
							CHANNELS 3 Xrotation Yrotation Zrotation
							JOINT LeftShoulder
							{
								OFFSET 15.263000 10.923401 -0.547700
								CHANNELS 3 Xrotation Yrotation Zrotation
								JOINT LeftArm
								{
									OFFSET 25.438599 -2.830597 -13.032500
									CHANNELS 3 Xrotation Yrotation Zrotation
									JOINT LeftForeArm
									{
										OFFSET 29.960503 0.000000 0.000000
										CHANNELS 3 Xrotation Yrotation Zrotation
										JOINT LeftHand
										{
											OFFSET 27.849251 0.000000 0.000000
											CHANNELS 3 Xrotation Yrotation Zrotation
											End Site
											{
												OFFSET 0 0 0
											}
										}
									}
								}
							}
						}
						JOINT RightShoulder_virtual
						{
							OFFSET 0.000000 0.000000 0.000000
							CHANNELS 3 Xrotation Yrotation Zrotation
							JOINT RightShoulder
							{
								OFFSET -15.263000 10.923401 -0.547700
								CHANNELS 3 Xrotation Yrotation Zrotation
								JOINT RightArm
								{
									OFFSET -25.438599 -2.830597 -13.032500
									CHANNELS 3 Xrotation Yrotation Zrotation
									JOINT RightForeArm
									{
										OFFSET -29.960503 0.000000 0.000000
										CHANNELS 3 Xrotation Yrotation Zrotation
										JOINT RightHand
										{
											OFFSET -27.849251 0.000000 0.000000
											CHANNELS 3 Xrotation Yrotation Zrotation
											End Site
											{
												OFFSET 0 0 0
											}
										}
									}
								}
							}
						}
					}
				}
			}
		}
	}
}
MOTION
Frames: 7
Frame Time: 0.03333333
-3.305210 90.079666 9.181042 0.000000 0.000000 0.000000 -148.274473 -79.316624 -146.419694 -20.117911 10.175836 16.609178 32.104286 -7.071808 3.250145 -10.579190 0.246697 -24.672812 0.000000 0.000000 0.000000 -143.684763 -79.889048 -141.184477 -19.687061 -16.506615 -19.983037 32.552402 -2.835345 -3.287438 -1.750088 0.558935 19.769662 0.000000 0.000000 0.000000 -142.403639 -81.085356 -140.382736 -0.698743 0.011921 0.034425 9.492884 -0.080071 1.032410 -3.213836 -1.097188 1.653985 0.000000 0.000000 0.000000 -2.622848 -0.205232 0.802503 1.988984 3.389414 -0.087310 0.000000 0.000000 0.000000 -3.271072 -0.819099 2.256393 1.721362 -6.584523 -4.210115 34.517478 -66.746343 -38.264130 0.756756 -41.376220 1.072125 0.000000 0.000000 0.000000 -2.502304 -0.168582 0.803387 15.519375 13.076033 9.224929 14.902546 16.057554 57.423046 5.320005 46.823935 -0.035293 0.000000 0.000000 0.000000 
-3.370227 90.019669 9.074272 0.000000 0.000000 0.000000 -146.979237 -79.687995 -145.151519 -20.307800 10.318687 16.629426 32.139674 -7.087734 3.317835 -10.305129 0.382038 -24.663726 0.000000 0.000000 0.000000 -142.959548 -80.232074 -140.623418 -19.629619 -16.486203 -19.692721 32.479534 -2.703079 -3.238627 -3.033629 0.389580 19.927768 0.000000 0.000000 0.000000 -141.869750 -81.231440 -139.912477 -0.692162 0.001134 0.043149 9.496505 -0.083902 1.074564 -3.335848 -1.176104 1.847291 0.000000 0.000000 0.000000 -2.383400 -0.272488 0.873482 1.976352 3.372879 -0.150156 0.000000 0.000000 0.000000 -2.965144 -0.872477 2.287648 1.598520 -6.318317 -4.307910 34.322326 -66.395641 -38.690559 0.940231 -41.366863 1.134995 0.000000 0.000000 0.000000 -2.438784 -0.165803 0.946416 15.551205 12.833657 9.004503 14.920673 15.530952 57.421113 5.467977 47.512958 -0.295435 0.000000 0.000000 0.000000 
-3.375097 89.931076 8.920948 0.000000 0.000000 0.000000 -145.136944 -80.274455 -143.331848 -20.862412 10.805873 16.449459 32.419841 -7.055737 3.640306 -9.955965 0.519804 -24.016040 0.000000 0.000000 0.000000 -141.703858 -80.740527 -139.559493 -19.535292 -16.445745 -19.596021 32.668067 -2.257770 -3.258150 -4.454999 0.453768 20.534344 0.000000 0.000000 0.000000 -141.284389 -81.464404 -139.406674 -0.705315 -0.011942 0.045454 9.434906 -0.280992 1.056473 -3.366667 -1.431558 2.136931 0.000000 0.000000 0.000000 -2.124055 -0.457936 1.015853 1.957790 3.312469 -0.190290 0.000000 0.000000 0.000000 -2.633918 -1.049922 2.328100 1.532203 -5.965767 -4.484572 33.783383 -65.847613 -39.524935 1.243308 -41.799614 1.220794 0.000000 0.000000 0.000000 -2.324170 -0.281326 1.138954 15.727501 12.314319 8.384816 14.522106 15.463185 58.260510 5.939605 48.223717 -0.961457 0.000000 0.000000 0.000000 
-3.283711 89.839821 8.730228 0.000000 0.000000 0.000000 -143.299172 -80.863136 -141.487205 -21.726948 11.456745 16.115338 33.026021 -7.033144 4.157766 -9.627089 0.483778 -23.129430 0.000000 0.000000 0.000000 -140.413431 -81.200472 -138.397610 -19.527019 -16.254293 -19.643901 33.133094 -1.563364 -3.471311 -5.538270 0.679937 21.253846 0.000000 0.000000 0.000000 -141.006756 -81.715844 -139.199515 -0.724145 -0.018819 0.037501 9.349376 -0.622698 0.904871 -3.325145 -1.787195 2.488833 0.000000 0.000000 0.000000 -1.899076 -0.694033 1.208657 1.949814 3.225077 -0.200537 0.000000 0.000000 0.000000 -2.353068 -1.284526 2.357892 1.518868 -5.651927 -4.729125 33.223041 -65.282210 -40.375810 1.631150 -42.298255 1.316829 0.000000 0.000000 0.000000 -2.243511 -0.453201 1.352763 15.998618 11.812785 7.595018 13.763524 15.757824 59.586598 6.726165 48.797716 -1.992802 0.000000 0.000000 0.000000 
-3.066792 89.753624 8.533176 0.000000 0.000000 0.000000 -142.688676 -81.252770 -140.819759 -22.722357 12.160448 15.776246 33.777669 -7.071509 4.786658 -9.368463 0.163809 -22.437530 0.000000 0.000000 0.000000 -139.972487 -81.479471 -137.991596 -19.553875 -15.901865 -19.684935 33.524788 -0.868419 -3.855465 -6.734412 0.757534 21.472991 0.000000 0.000000 0.000000 -141.510987 -81.892254 -139.722229 -0.737072 -0.010496 0.026627 9.367738 -0.995001 0.547289 -3.240151 -2.112477 2.861280 0.000000 0.000000 0.000000 -1.736528 -0.883502 1.408798 1.985481 3.122887 -0.192926 0.000000 0.000000 0.000000 -2.177692 -1.486656 2.361628 1.540836 -5.381402 -4.970542 32.778252 -64.835332 -40.935376 2.156654 -42.570336 1.456963 0.000000 0.000000 0.000000 -2.223549 -0.573808 1.573714 16.287081 11.606820 6.888092 12.641884 16.220350 60.982613 7.739780 49.011050 -3.258776 0.000000 0.000000 0.000000 
-2.783501 89.702202 8.310490 0.000000 0.000000 0.000000 -144.116732 -81.343332 -142.170674 -23.451647 12.806082 15.381064 34.223913 -7.196649 5.498491 -9.203623 -0.434757 -22.223528 0.000000 0.000000 0.000000 -141.339864 -81.505945 -139.294236 -19.493020 -15.507881 -19.576273 33.660320 -0.340904 -4.310881 -8.460969 0.486262 20.902570 0.000000 0.000000 0.000000 -143.140015 -81.959757 -141.305932 -0.744714 0.007267 0.009314 9.523131 -1.300986 -0.061462 -3.132287 -2.301920 3.189859 0.000000 0.000000 0.000000 -1.653078 -0.940801 1.553014 2.076208 3.019276 -0.180206 0.000000 0.000000 0.000000 -2.146372 -1.574143 2.320443 1.571579 -5.135853 -5.125762 32.203003 -64.527884 -41.351307 2.787175 -42.431761 1.661562 0.000000 0.000000 0.000000 -2.282829 -0.565033 1.772854 16.495508 11.849138 6.459875 11.160230 16.599118 62.219724 8.853056 48.534447 -4.622903 0.000000 0.000000 0.000000 
-2.451765 89.716484 8.043240 0.000000 0.000000 0.000000 -147.550814 -81.106160 -145.586356 -23.435766 13.114556 14.720584 33.754529 -7.276604 6.430597 -9.178812 -1.157579 -22.451786 0.000000 0.000000 0.000000 -144.436112 -81.306558 -142.289301 -19.374132 -14.952959 -19.286670 33.647916 0.192972 -4.785536 -10.227337 0.143116 19.818991 0.000000 0.000000 0.000000 -146.208887 -81.786775 -144.278075 -0.752649 0.031705 -0.000319 9.772526 -1.503314 -0.880825 -2.988920 -2.344484 3.392453 0.000000 0.000000 0.000000 -1.605526 -0.834479 1.581513 2.225937 2.916051 -0.150019 0.000000 0.000000 0.000000 -2.206442 -1.515119 2.187354 1.592972 -4.813689 -5.125319 30.908536 -64.090411 -42.162672 3.520081 -42.308381 2.019619 0.000000 0.000000 0.000000 -2.388350 -0.408300 1.891093 16.601541 12.434007 6.353402 9.298777 16.693853 63.350524 9.947635 47.457800 -6.032365 0.000000 0.000000 0.000000 
